<?xml version="1.0" encoding="UTF-8" standalone="no"?>
<svg
   xmlns:dc="http://purl.org/dc/elements/1.1/"
   xmlns:cc="http://creativecommons.org/ns#"
   xmlns:rdf="http://www.w3.org/1999/02/22-rdf-syntax-ns#"
   xmlns:svg="http://www.w3.org/2000/svg"
   xmlns="http://www.w3.org/2000/svg"
   version="1.1"
   id="svg2"
   viewBox="0 0 485.00605 386.04511"
   height="108.95051mm"
   width="136.87949mm">
  <defs
     id="defs4" />
  <metadata
     id="metadata7">
    <rdf:RDF>
      <cc:Work
         rdf:about="">
        <dc:format>image/svg+xml</dc:format>
        <dc:type
           rdf:resource="http://purl.org/dc/dcmitype/StillImage" />
        <dc:title></dc:title>
      </cc:Work>
    </rdf:RDF>
  </metadata>
  <g
     transform="translate(-94.087193,-143.44209)"
     id="layer1">
    <path
       id="path4136"
       d="m 247.14286,185.21935 -114.28572,300 424.28572,-47.14286 z"
       style="fill:none;fill-rule:evenodd;stroke:#000000;stroke-width:1px;stroke-linecap:butt;stroke-linejoin:miter;stroke-opacity:1" />
    <path
       id="path4138"
       d="m 247.14286,186.64792 97.85714,275"
       style="fill:none;fill-rule:evenodd;stroke:#000000;stroke-width:1px;stroke-linecap:butt;stroke-linejoin:miter;stroke-opacity:1" />
    <path
       id="path4140"
       d="M 132.85714,485.21935 402.14286,311.64792"
       style="fill:none;fill-rule:evenodd;stroke:#000000;stroke-width:1px;stroke-linecap:butt;stroke-linejoin:miter;stroke-opacity:1" />
    <path
       id="path4142"
       d="M 190,335.21935 557.14286,438.07649"
       style="fill:none;fill-rule:evenodd;stroke:#000000;stroke-width:1px;stroke-linecap:butt;stroke-linejoin:miter;stroke-opacity:1" />
    <flowRoot
       style="font-style:normal;font-variant:normal;font-weight:normal;font-stretch:normal;font-size:45px;line-height:125%;font-family:Sans;-inkscape-font-specification:'Sans, Normal';text-align:start;letter-spacing:0px;word-spacing:0px;writing-mode:lr-tb;text-anchor:start;fill:#000000;fill-opacity:1;stroke:none;stroke-width:1px;stroke-linecap:butt;stroke-linejoin:miter;stroke-opacity:1"
       id="flowRoot4144"
       xml:space="preserve"><flowRegion
         id="flowRegion4146"><rect
           y="123.79078"
           x="225.71428"
           height="52.857143"
           width="88.571426"
           id="rect4148" /></flowRegion><flowPara
         id="flowPara4150">a</flowPara></flowRoot>    <flowRoot
       transform="translate(7.1428571,-22.857143)"
       style="font-style:normal;font-variant:normal;font-weight:normal;font-stretch:normal;font-size:45px;line-height:125%;font-family:Sans;-inkscape-font-specification:'Sans, Normal';text-align:start;letter-spacing:0px;word-spacing:0px;writing-mode:lr-tb;text-anchor:start;fill:#000000;fill-opacity:1;stroke:none;stroke-width:1px;stroke-linecap:butt;stroke-linejoin:miter;stroke-opacity:1"
       id="flowRoot4152"
       xml:space="preserve"><flowRegion
         id="flowRegion4154"><rect
           y="496.64792"
           x="82.85714"
           height="71.428574"
           width="67.14286"
           id="rect4156" /></flowRegion><flowPara
         id="flowPara4158">b</flowPara></flowRoot>    <flowRoot
       style="font-style:normal;font-variant:normal;font-weight:normal;font-stretch:normal;font-size:45px;line-height:125%;font-family:Sans;-inkscape-font-specification:'Sans, Normal';text-align:start;letter-spacing:0px;word-spacing:0px;writing-mode:lr-tb;text-anchor:start;fill:#000000;fill-opacity:1;stroke:none;stroke-width:1px;stroke-linecap:butt;stroke-linejoin:miter;stroke-opacity:1"
       id="flowRoot4160"
       xml:space="preserve"><flowRegion
         id="flowRegion4162"><rect
           y="438.07648"
           x="557.14288"
           height="54.285713"
           width="49.999996"
           id="rect4164" /></flowRegion><flowPara
         id="flowPara4166">Cccc</flowPara></flowRoot>    <path
       id="path4168"
       d="M 190,335.21935 402.14286,311.64792 345,461.64792 Z"
       style="fill:none;fill-rule:evenodd;stroke:#000000;stroke-width:1px;stroke-linecap:butt;stroke-linejoin:miter;stroke-opacity:1" />
    <path
       id="path4172"
       d="m 192.42857,332.89572 c 0,-1.39141 53.15783,-140.18756 54.03888,-141.09658 0.90562,-0.93438 46.67541,125.88879 46.67541,129.33254 0,1.0554 -16.25009,3.43789 -47.14286,6.9118 -48.29361,5.43064 -53.57143,5.90867 -53.57143,4.85224 z"
       style="opacity:0.43000004;fill:#6bd413;fill-opacity:0.54966885;stroke:#ffffff;stroke-width:1.42857146;stroke-miterlimit:0;stroke-dasharray:none;stroke-opacity:0.61000001" />
    <path
       id="path4174"
       d="m 295.96665,320.29078 c -8.01228,-21.74518 -46.26404,-130.25023 -46.00796,-130.50631 0.19674,-0.19674 33.64127,26.75634 74.32119,59.89573 69.48156,56.6023 73.72238,60.31707 69.98466,61.30355 -3.35464,0.88537 -91.86535,11.09274 -96.18804,11.09274 -0.79854,0 -1.74797,-0.80357 -2.10985,-1.78571 z"
       style="opacity:0.43000004;fill:#6bd413;fill-opacity:0.54966885;stroke:#ffffff;stroke-width:1.42857146;stroke-miterlimit:0;stroke-dasharray:none;stroke-opacity:0.61000001" />
    <path
       id="path4180"
       d="m 252.47926,351.51723 -56.37789,-15.82622 49.05384,-5.44083 c 26.97962,-2.99245 49.31142,-5.18325 49.62623,-4.86844 1.10966,1.10966 14.85436,40.07009 14.46763,41.0096 -0.21556,0.52367 -25.76198,-6.16968 -56.76981,-14.87411 z"
       style="opacity:0.43000004;fill:#008000;fill-opacity:0.54966885;stroke:#ffffff;stroke-width:1.42857146;stroke-miterlimit:0;stroke-dasharray:none;stroke-opacity:0.61000001" />
    <path
       id="path4182"
       d="m 305.46282,346.89373 c -4.04857,-11.53166 -6.97924,-21.35089 -6.51261,-21.82052 0.91847,-0.92435 95.2537,-11.69757 95.98918,-10.96209 0.24516,0.24515 -16.71426,11.51104 -37.68758,25.0353 -20.97333,13.52426 -39.54962,25.51755 -41.28065,26.65176 -3.11025,2.03792 -3.23401,1.81527 -10.50834,-18.90445 z"
       style="opacity:0.43000004;fill:#008000;fill-opacity:0.54966885;stroke:#ffffff;stroke-width:1.42857146;stroke-miterlimit:0;stroke-dasharray:none;stroke-opacity:0.61000001" />
    <path
       id="path4186"
       d="m 137.02198,478.31004 c 0.86422,-3.17017 52.75039,-139.57859 53.37044,-140.31057 0.23556,-0.27807 17.19619,13.15508 37.69029,29.85146 20.4941,16.69637 37.08801,30.51855 36.87536,30.71596 -0.96077,0.89188 -123.24972,79.50881 -125.79602,80.87156 -2.45201,1.31227 -2.76101,1.14934 -2.14007,-1.12841 z"
       style="opacity:0.43000004;fill:#ff5555;fill-opacity:0.54966885;stroke:#ffffff;stroke-width:1.42857146;stroke-miterlimit:0;stroke-dasharray:none;stroke-opacity:0.61000001" />
    <path
       id="path4188"
       d="m 140.28571,482.39238 c 1.68587,-1.72204 123.49431,-80.34231 125.99295,-81.32112 0.93898,-0.36784 18.15268,12.72469 38.25268,29.0945 28.44087,23.16278 35.9825,29.97889 34.00705,30.73544 -1.39612,0.53467 -44.64553,5.55486 -96.10982,11.15596 -51.46428,5.60111 -95.82143,10.54622 -98.57143,10.98914 -3.39271,0.54644 -4.54077,0.33623 -3.57143,-0.65392 z"
       style="opacity:0.43000004;fill:#ff5555;fill-opacity:0.54966885;stroke:#ffffff;stroke-width:1.42857146;stroke-miterlimit:0;stroke-dasharray:none;stroke-opacity:0.61000001" />
    <path
       id="path4190"
       d="m 232.53547,368.29757 c -18.9496,-15.43555 -34.1838,-28.33465 -33.85378,-28.66467 0.33002,-0.33002 25.38559,6.34448 55.67905,14.83222 l 55.07901,15.43226 -20.2913,13.20576 c -11.16022,7.26317 -20.71157,13.21775 -21.22523,13.23241 -0.51366,0.0147 -16.43815,-12.60243 -35.38775,-28.03798 z"
       style="opacity:0.43000004;fill:#ff0000;fill-opacity:0.54966885;stroke:#ffffff;stroke-width:1.42857146;stroke-miterlimit:0;stroke-dasharray:none;stroke-opacity:0.61000001" />
    <path
       id="path4192"
       d="m 304.93893,427.37009 -35.33896,-28.76185 20.34287,-13.23922 c 11.18858,-7.28158 20.69463,-13.25122 21.12456,-13.26588 1.00597,-0.0343 30.52586,82.71342 29.77538,83.4639 -0.31069,0.31069 -16.46742,-12.37794 -35.90385,-28.19695 z"
       style="opacity:0.43000004;fill:#ff0000;fill-opacity:0.54966885;stroke:#ffffff;stroke-width:1.42857146;stroke-miterlimit:0;stroke-dasharray:none;stroke-opacity:0.61000001" />
    <path
       id="path4194"
       d="m 350.35924,451.02094 c 1.99779,-5.31231 8.19308,-21.64637 13.76731,-36.29793 l 10.13497,-26.63919 8.72638,2.42676 c 88.51227,24.61472 166.27944,46.6319 165.93297,46.97837 -0.24318,0.24318 -43.42843,5.20854 -95.96722,11.03412 -52.53879,5.82559 -97.93296,10.94402 -100.87592,11.37429 l -5.35084,0.78231 3.63235,-9.65873 z"
       style="opacity:0.43000004;fill:#ff7f2a;fill-opacity:0.54966885;stroke:#ffffff;stroke-width:1.42857146;stroke-miterlimit:0;stroke-dasharray:none;stroke-opacity:0.61000001" />
    <path
       id="path4196"
       d="m 459.57143,409.64813 c -45.96429,-12.96644 -83.73449,-23.72685 -83.93378,-23.91203 -0.37457,-0.34804 26.35224,-70.89541 27.0903,-71.50686 0.41918,-0.34727 140.05966,113.35649 143.93532,117.20086 1.83466,1.81986 1.74683,2.05765 -0.71428,1.93417 -1.54338,-0.0774 -40.41328,-10.7497 -86.37756,-23.71614 z"
       style="opacity:0.43000004;fill:#ff7f2a;fill-opacity:0.54966885;stroke:#ffffff;stroke-width:1.42857146;stroke-miterlimit:0;stroke-dasharray:none;stroke-opacity:0.61000001" />
    <path
       id="path4198"
       d="m 344.27041,377.31724 c -14.30842,-4.06098 -25.97871,-8.02646 -25.93399,-8.81218 0.0971,-1.70631 78.53236,-52.46455 79.53013,-51.46679 1.14324,1.14325 -24.6082,67.8642 -26.15226,67.75947 -0.78572,-0.0533 -13.13546,-3.41951 -27.44388,-7.4805 z"
       style="opacity:0.43000004;fill:#aa4400;fill-opacity:0.54966885;stroke:#ffffff;stroke-width:1.42857146;stroke-miterlimit:0;stroke-dasharray:none;stroke-opacity:0.61000001" />
    <path
       id="path4200"
       d="m 329.62724,414.8838 c -8.09492,-22.81313 -14.37825,-41.81821 -13.96294,-42.23352 1.22231,-1.22231 55.33443,14.269 55.34888,15.84537 0.0212,2.30771 -24.92858,67.80766 -25.84053,67.83854 -0.45505,0.0154 -7.45048,-18.63727 -15.54541,-41.45039 z"
       style="opacity:0.43000004;fill:#aa4400;fill-opacity:0.54966885;stroke:#ffffff;stroke-width:1.42857146;stroke-miterlimit:0;stroke-dasharray:none;stroke-opacity:0.61000001" />
    <flowRoot
       style="font-style:normal;font-variant:normal;font-weight:normal;font-stretch:normal;font-size:45px;line-height:125%;font-family:Sans;-inkscape-font-specification:'Sans, Normal';text-align:start;letter-spacing:0px;word-spacing:0px;writing-mode:lr-tb;text-anchor:start;fill:#000000;fill-opacity:1;stroke:none;stroke-width:1px;stroke-linecap:butt;stroke-linejoin:miter;stroke-opacity:1"
       id="flowRoot4210"
       xml:space="preserve"><flowRegion
         id="flowRegion4212"><rect
           y="243.79077"
           x="401.42856"
           height="64.285713"
           width="148.57143"
           id="rect4214" /></flowRegion><flowPara
         id="flowPara4216">m<flowSpan
   id="flowSpan4218"
   style="font-size:64.99999762%;baseline-shift:sub">ac</flowSpan></flowPara></flowRoot>    <flowRoot
       style="font-style:normal;font-variant:normal;font-weight:normal;font-stretch:normal;font-size:45px;line-height:125%;font-family:Sans;-inkscape-font-specification:'Sans, Normal';text-align:start;letter-spacing:0px;word-spacing:0px;writing-mode:lr-tb;text-anchor:start;fill:#000000;fill-opacity:1;stroke:none;stroke-width:1px;stroke-linecap:butt;stroke-linejoin:miter;stroke-opacity:1"
       id="flowRoot4220"
       xml:space="preserve"><flowRegion
         id="flowRegion4222"><rect
           y="286.64792"
           x="88.571426"
           height="46.247803"
           width="103.85714"
           id="rect4224" /></flowRegion><flowPara
         id="flowPara4226">m</flowPara></flowRoot>    <flowRoot
       style="font-style:normal;font-variant:normal;font-weight:normal;font-stretch:normal;font-size:45px;line-height:125%;font-family:Sans;-inkscape-font-specification:'Sans, Normal';text-align:start;letter-spacing:0px;word-spacing:0px;writing-mode:lr-tb;text-anchor:start;fill:#000000;fill-opacity:1;stroke:none;stroke-width:1px;stroke-linecap:butt;stroke-linejoin:miter;stroke-opacity:1"
       id="flowRoot4228"
       xml:space="preserve"><flowRegion
         id="flowRegion4230"><rect
           y="273.79077"
           x="51.42857"
           height="61.428574"
           width="138.57143"
           id="rect4232" /></flowRegion><flowPara
         id="flowPara4234"></flowPara></flowRoot>    <flowRoot
       transform="translate(107.14286,22.857143)"
       style="font-style:normal;font-variant:normal;font-weight:normal;font-stretch:normal;font-size:45px;line-height:125%;font-family:Sans;-inkscape-font-specification:'Sans, Normal';text-align:start;letter-spacing:0px;word-spacing:0px;writing-mode:lr-tb;text-anchor:start;fill:#000000;fill-opacity:1;stroke:none;stroke-width:1px;stroke-linecap:butt;stroke-linejoin:miter;stroke-opacity:1"
       id="flowRoot4236"
       xml:space="preserve"><flowRegion
         id="flowRegion4238"><rect
           y="269.50507"
           x="-11.428572"
           height="100"
           width="155.71428"
           id="rect4240" /></flowRegion><flowPara
         id="flowPara4242">m<flowSpan
   id="flowSpan4244"
   style="font-size:64.99999762%;baseline-shift:sub">ab</flowSpan></flowPara></flowRoot>    <flowRoot
       transform="translate(7.1428571,-45.714286)"
       style="font-style:normal;font-variant:normal;font-weight:normal;font-stretch:normal;font-size:45px;line-height:125%;font-family:Sans;-inkscape-font-specification:'Sans, Normal';text-align:start;letter-spacing:0px;word-spacing:0px;writing-mode:lr-tb;text-anchor:start;fill:#000000;fill-opacity:1;stroke:none;stroke-width:1px;stroke-linecap:butt;stroke-linejoin:miter;stroke-opacity:1"
       id="flowRoot4246"
       xml:space="preserve"><flowRegion
         id="flowRegion4248"><rect
           y="520.93365"
           x="287.14285"
           height="97.14286"
           width="164.28572"
           id="rect4250" /></flowRegion><flowPara
         id="flowPara4252">m<flowSpan
   id="flowSpan4254"
   style="font-size:64.99999762%;baseline-shift:sub">bc</flowSpan></flowPara></flowRoot>    <flowRoot
       style="font-style:normal;font-variant:normal;font-weight:normal;font-stretch:normal;font-size:45px;line-height:125%;font-family:Sans;-inkscape-font-specification:'Sans, Normal';text-align:start;letter-spacing:0px;word-spacing:0px;writing-mode:lr-tb;text-anchor:start;fill:#000000;fill-opacity:1;stroke:none;stroke-width:1px;stroke-linecap:butt;stroke-linejoin:miter;stroke-opacity:1"
       id="flowRoot4256"
       xml:space="preserve"><flowRegion
         id="flowRegion4258"><rect
           y="438.07648"
           x="557.14288"
           height="77.14286"
           width="97.142853"
           id="rect4260" /></flowRegion><flowPara
         id="flowPara4262">c</flowPara></flowRoot>    <flowRoot
       transform="translate(-40,-9.9999995)"
       style="font-style:normal;font-variant:normal;font-weight:normal;font-stretch:normal;font-size:45px;line-height:125%;font-family:Sans;-inkscape-font-specification:'Sans, Normal';text-align:start;letter-spacing:0px;word-spacing:0px;writing-mode:lr-tb;text-anchor:start;fill:#000000;fill-opacity:1;stroke:none;stroke-width:1px;stroke-linecap:butt;stroke-linejoin:miter;stroke-opacity:1"
       id="flowRoot4264"
       xml:space="preserve"><flowRegion
         id="flowRegion4266"><rect
           y="377.31723"
           x="344.27042"
           height="65.044968"
           width="88.586731"
           id="rect4268" /></flowRegion><flowPara
         id="flowPara4270">C</flowPara></flowRoot>  </g>
</svg>
